# Blender v2.76 (sub 0) OBJ File: ''
# www.blender.org
mtllib bed.mtl
o Cube
v 2.669530 -0.089365 -1.000000
v 2.669530 -0.089365 1.000000
v -2.669530 -0.089365 1.000000
v -2.669529 -0.089365 -1.000000
v 2.669531 0.089365 -0.999999
v 2.669528 0.089365 1.000001
v -2.669531 0.089365 1.000000
v -2.669529 0.089365 -1.000000
v 2.669530 -0.089365 0.000000
v 0.000000 -0.089365 -1.000000
v 0.000000 -0.089365 1.000000
v -2.669529 -0.089365 -0.000000
v 0.000000 -0.089365 -0.000000
v -0.667382 -0.089365 -1.000000
v -1.334764 -0.089365 -1.000000
v -2.002146 -0.089365 -1.000000
v -0.667382 -0.089365 1.000000
v -1.334765 -0.089365 1.000000
v -2.002148 -0.089365 1.000000
v -0.667382 -0.089365 -0.000000
v -1.334765 -0.089365 -0.000000
v -2.002147 -0.089365 -0.000000
v -2.669529 -0.089365 -0.500000
v 2.669530 -0.089365 -0.500000
v 0.000000 -0.089365 -0.500000
v -0.667382 -0.089365 -0.500000
v -1.334764 -0.089365 -0.500000
v -2.002147 -0.089365 -0.500000
v 2.669530 -0.089365 0.500000
v -2.669530 -0.089365 0.500000
v 0.000000 -0.089365 0.500000
v -0.667382 -0.089365 0.500000
v -1.334765 -0.089365 0.500000
v -2.002147 -0.089365 0.500000
v 1.779687 -0.089365 -1.000000
v 0.889844 -0.089365 -1.000000
v 1.779686 -0.089365 1.000000
v 0.889843 -0.089365 1.000000
v 1.779686 -0.089365 0.000000
v 0.889843 -0.089365 -0.000000
v 1.779686 -0.089365 -0.500000
v 0.889843 -0.089365 -0.500000
v 1.779686 -0.089365 0.500000
v 0.889843 -0.089365 0.500000
v 2.447069 -2.089365 0.625000
v 2.447069 -2.089365 0.875000
v -2.168992 -2.089365 -0.875000
v -2.502683 -2.089365 -0.875000
v -2.168993 -2.089365 0.875000
v -2.502684 -2.089365 0.875000
v -2.502683 -2.089365 -0.625000
v -2.168992 -2.089365 -0.625000
v 2.447069 -2.089365 -0.875000
v 2.447069 -2.089365 -0.625000
v -2.502684 -2.089365 0.625000
v -2.168993 -2.089365 0.625000
v 2.002147 -2.089365 -0.875000
v 2.002147 -2.089365 0.875000
v 2.002147 -2.089365 -0.625000
v 2.002147 -2.089365 0.625000
v 2.669531 0.289365 -0.999999
v 2.669528 0.289365 1.000001
v -2.669529 0.289365 -1.000000
v -2.669531 0.289365 1.000000
v -1.457444 0.089365 -1.000000
v -1.457446 0.089365 1.000000
v -1.457444 0.289365 -1.000000
v -1.457446 0.289365 1.000000
v 2.669531 0.458057 -0.999999
v 2.669528 0.458057 1.000001
v -1.457444 0.458057 -1.000000
v -1.457446 0.458057 1.000000
vn 1.000000 0.000000 0.000000
vn -0.000000 -0.000000 1.000000
vn -1.000000 -0.000000 -0.000000
vn 0.000000 0.000000 -1.000000
vn 0.000000 -1.000000 -0.000000
vn 0.000000 1.000000 -0.000000
vn -0.996500 -0.083100 -0.000000
vn -0.993900 -0.110500 0.000000
vn 0.000000 -0.062400 -0.998100
vn 0.000000 -0.062400 0.998100
vn 0.993900 -0.110500 0.000000
vn 0.996500 -0.083100 0.000000
usemtl Material
s off
f 1//1 5//1 6//1 2//1 29//1 9//1 24//1
f 2//2 6//2 66//2 7//2 3//2 19//2 18//2 17//2 11//2 38//2 37//2
f 3//3 7//3 8//3 4//3 23//3 12//3 30//3
f 5//4 1//4 35//4 36//4 10//4 14//4 15//4 16//4 4//4 8//4 65//4
f 28//5 22//5 12//5 23//5
f 42//5 40//5 13//5 25//5
f 44//5 38//5 11//5 31//5
f 25//5 13//5 20//5 26//5
f 26//5 20//5 21//5 27//5
f 27//5 21//5 22//5 28//5
f 31//5 11//5 17//5 32//5
f 32//5 17//5 18//5 33//5
f 33//5 18//5 19//5 34//5
f 15//5 27//5 28//5 16//5
f 14//5 26//5 27//5 15//5
f 10//5 25//5 26//5 14//5
f 36//5 42//5 25//5 10//5
f 21//5 33//5 34//5 22//5
f 20//5 32//5 33//5 21//5
f 13//5 31//5 32//5 20//5
f 40//5 44//5 31//5 13//5
f 22//5 34//5 30//5 12//5
f 9//5 29//5 43//5 39//5
f 39//5 43//5 44//5 40//5
f 35//5 41//5 42//5 36//5
f 43//5 37//5 38//5 44//5
f 24//5 9//5 39//5 41//5
f 41//5 39//5 40//5 42//5
f 67//3 68//3 72//3 71//3
f 69//6 71//6 72//6 70//6
f 62//1 61//1 69//1 70//1
f 68//2 62//2 70//2 72//2
f 61//4 67//4 71//4 69//4
usemtl Material.001
f 66//2 6//2 62//2 68//2
f 67//6 63//6 64//6 68//6
f 6//1 5//1 61//1 62//1
f 8//3 7//3 64//3 63//3
f 65//4 8//4 63//4 67//4
f 5//4 65//4 67//4 61//4
f 7//2 66//2 68//2 64//2
usemtl Material.002
f 23//7 4//7 48//7 51//7
f 37//8 43//8 60//8 58//8
f 30//9 34//9 56//9 55//9
f 24//10 41//10 59//10 54//10
f 56//5 49//5 50//5 55//5
f 47//5 52//5 51//5 48//5
f 53//5 54//5 59//5 57//5
f 45//5 46//5 58//5 60//5
f 35//9 1//9 53//9 57//9
f 43//9 29//9 45//9 60//9
f 1//11 24//11 54//11 53//11
f 34//12 19//12 49//12 56//12
f 2//10 37//10 58//10 46//10
f 29//11 2//11 46//11 45//11
f 28//10 23//10 51//10 52//10
f 4//9 16//9 47//9 48//9
f 16//12 28//12 52//12 47//12
f 41//8 35//8 57//8 59//8
f 3//7 30//7 55//7 50//7
f 19//10 3//10 50//10 49//10
