# Blender v2.76 (sub 0) OBJ File: ''
# www.blender.org
mtllib chair.mtl
o Cube_Cube.001
v -1.000000 -0.149071 1.000000
v -1.000000 0.149071 1.000000
v -1.000000 -0.149071 -1.000000
v -1.000000 0.149071 -1.000000
v 1.000000 -0.149071 1.000000
v 1.000000 0.149071 1.000000
v 1.000000 -0.149071 -1.000000
v 1.000000 0.149071 -1.000000
v -0.333333 0.149071 -1.000000
v 0.333333 0.149071 -1.000000
v 0.333333 -0.149071 -1.000000
v -0.333333 -0.149071 -1.000000
v 0.333333 0.149071 1.000000
v -0.333333 0.149071 1.000000
v -0.333333 -0.149071 1.000000
v 0.333333 -0.149071 1.000000
v -0.666667 -0.149071 -1.000000
v -0.666667 0.149071 1.000000
v -0.666667 0.149071 -1.000000
v -0.666667 -0.149071 1.000000
v 0.666667 0.149071 -1.000000
v 0.666667 -0.149071 1.000000
v 0.666667 -0.149071 -1.000000
v 0.666667 0.149071 1.000000
v -1.000000 0.149071 0.600000
v -1.000000 0.149071 0.200000
v -1.000000 0.149071 -0.200000
v -1.000000 0.149071 -0.600000
v -1.000000 -0.149071 -0.600000
v -1.000000 -0.149071 -0.200000
v -1.000000 -0.149071 0.200000
v -1.000000 -0.149071 0.600000
v 1.000000 0.149071 -0.600000
v 1.000000 0.149071 -0.200000
v 1.000000 0.149071 0.200000
v 1.000000 0.149071 0.600000
v 1.000000 -0.149071 0.600000
v 1.000000 -0.149071 0.200000
v 1.000000 -0.149071 -0.200000
v 1.000000 -0.149071 -0.600000
v 0.333333 0.149071 -0.600000
v 0.333333 0.149071 -0.200000
v 0.333333 0.149071 0.200000
v 0.333333 0.149071 0.600000
v -0.333333 0.149071 -0.600000
v -0.333333 0.149071 -0.200000
v -0.333333 0.149071 0.200000
v -0.333333 0.149071 0.600000
v -0.333333 -0.149071 -0.600000
v -0.333333 -0.149071 -0.200000
v -0.333333 -0.149071 0.200000
v -0.333333 -0.149071 0.600000
v 0.333333 -0.149071 -0.600000
v 0.333333 -0.149071 -0.200000
v 0.333333 -0.149071 0.200000
v 0.333333 -0.149071 0.600000
v -0.666667 -0.149071 -0.600000
v -0.666667 -0.149071 -0.200000
v -0.666667 -0.149071 0.200000
v -0.666667 -0.149071 0.600000
v -0.666667 0.149071 -0.600000
v -0.666667 0.149071 -0.200000
v -0.666667 0.149071 0.200000
v -0.666667 0.149071 0.600000
v 0.666667 0.149071 -0.600000
v 0.666667 0.149071 -0.200000
v 0.666667 0.149071 0.200000
v 0.666667 0.149071 0.600000
v 0.666667 -0.149071 -0.600000
v 0.666667 -0.149071 -0.200000
v 0.666667 -0.149071 0.200000
v 0.666667 -0.149071 0.600000
v 0.666667 -2.149071 -0.600000
v -0.666667 -2.149071 -0.600000
v 1.000000 -2.149071 0.600000
v -1.000000 -2.149071 -0.600000
v 0.666667 -2.149071 0.600000
v 0.666667 -2.149071 -1.000000
v -0.666667 -2.149071 0.600000
v -0.666667 -2.149071 1.000000
v 1.000000 -2.149071 1.000000
v 0.666667 -2.149071 1.000000
v 1.000000 -2.149071 -1.000000
v 1.000000 -2.149071 -0.600000
v -1.000000 -2.149071 -1.000000
v -0.666667 -2.149071 -1.000000
v -1.000000 -2.149071 1.000000
v -1.000000 -2.149071 0.600000
v -1.000000 2.149071 -0.600000
v -1.000000 2.149071 -1.000000
v 0.666667 2.149071 -1.000000
v 1.000000 2.149071 -1.000000
v -0.666667 2.149071 -1.000000
v -0.333333 2.149071 -1.000000
v 0.333333 2.149071 -1.000000
v 1.000000 2.149071 -0.600000
v 0.333333 2.149071 -0.600000
v -0.333333 2.149071 -0.600000
v -0.666667 2.149071 -0.600000
v 0.666667 2.149071 -0.600000
v -0.666667 1.749071 -1.000000
v -0.666667 1.349071 -1.000000
v -0.666667 0.949071 -1.000000
v -0.666667 0.549071 -1.000000
v -1.000000 0.549071 -1.000000
v -1.000000 0.949071 -1.000000
v -1.000000 1.349071 -1.000000
v -1.000000 1.749071 -1.000000
v 0.333333 1.749071 -1.000000
v 0.333333 1.349071 -1.000000
v 0.333333 0.949071 -1.000000
v 0.333333 0.549071 -1.000000
v -0.333333 0.549071 -1.000000
v -0.333333 0.949071 -1.000000
v -0.333333 1.349071 -1.000000
v -0.333333 1.749071 -1.000000
v 0.333333 0.549071 -0.600000
v 0.333333 0.949071 -0.600000
v 0.333333 1.349071 -0.600000
v 0.333333 1.749071 -0.600000
v -0.333333 1.749071 -0.600000
v -0.333333 1.349071 -0.600000
v -0.333333 0.949071 -0.600000
v -0.333333 0.549071 -0.600000
v 1.000000 0.549071 -0.600000
v 1.000000 0.949071 -0.600000
v 1.000000 1.349071 -0.600000
v 1.000000 1.749071 -0.600000
v 0.666667 1.749071 -0.600000
v 0.666667 1.349071 -0.600000
v 0.666667 0.949071 -0.600000
v 0.666667 0.549071 -0.600000
v 0.666667 0.549071 -1.000000
v 0.666667 0.949071 -1.000000
v 0.666667 1.349071 -1.000000
v 0.666667 1.749071 -1.000000
v 1.000000 1.749071 -1.000000
v 1.000000 1.349071 -1.000000
v 1.000000 0.949071 -1.000000
v 1.000000 0.549071 -1.000000
v -0.666667 1.749071 -0.600000
v -0.666667 1.349071 -0.600000
v -0.666667 0.949071 -0.600000
v -0.666667 0.549071 -0.600000
v -1.000000 0.549071 -0.600000
v -1.000000 0.949071 -0.600000
v -1.000000 1.349071 -0.600000
v -1.000000 1.749071 -0.600000
vn -1.000000 0.000000 0.000000
vn 0.000000 0.000000 -1.000000
vn 1.000000 0.000000 0.000000
vn 0.000000 0.000000 1.000000
vn 0.000000 -1.000000 0.000000
vn 0.000000 1.000000 0.000000
usemtl Material.001
s off
f 28//1 4//1 3//1 29//1
f 21//2 8//2 7//2 23//2
f 36//3 6//3 5//3 37//3
f 18//4 2//4 1//4 20//4
f 57//4 29//4 76//4 74//4
f 120//4 129//4 100//4 97//4
f 129//4 128//4 96//4 100//4
f 121//4 120//4 97//4 98//4
f 57//5 17//5 12//5 49//5
f 49//5 12//5 11//5 53//5
f 24//4 13//4 16//4 22//4
f 13//4 14//4 15//4 16//4
f 19//2 9//2 12//2 17//2
f 9//2 10//2 11//2 12//2
f 4//2 19//2 17//2 3//2
f 1//1 32//1 88//1 87//1
f 101//2 108//2 90//2 93//2
f 14//4 18//4 20//4 15//4
f 6//4 24//4 22//4 5//4
f 109//2 116//2 94//2 95//2
f 53//5 11//5 23//5 69//5
f 10//2 21//2 23//2 11//2
f 16//5 56//5 72//5 22//5
f 7//3 40//3 84//3 83//3
f 55//5 54//5 70//5 71//5
f 20//4 1//4 87//4 80//4
f 6//6 36//6 68//6 24//6
f 36//6 35//6 67//6 68//6
f 35//6 34//6 66//6 67//6
f 34//6 33//6 65//6 66//6
f 14//6 48//6 64//6 18//6
f 48//6 47//6 63//6 64//6
f 47//6 46//6 62//6 63//6
f 46//6 45//6 61//6 62//6
f 72//2 37//2 75//2 77//2
f 32//5 31//5 59//5 60//5
f 31//5 30//5 58//5 59//5
f 30//5 29//5 57//5 58//5
f 15//5 52//5 56//5 16//5
f 52//5 51//5 55//5 56//5
f 51//5 50//5 54//5 55//5
f 50//5 49//5 53//5 54//5
f 20//5 60//5 52//5 15//5
f 23//2 7//2 83//2 78//2
f 59//5 58//5 50//5 51//5
f 32//2 60//2 79//2 88//2
f 13//6 44//6 48//6 14//6
f 44//6 43//6 47//6 48//6
f 43//6 42//6 46//6 47//6
f 42//6 41//6 45//6 46//6
f 24//6 68//6 44//6 13//6
f 68//6 67//6 43//6 44//6
f 67//6 66//6 42//6 43//6
f 66//6 65//6 41//6 42//6
f 18//6 64//6 25//6 2//6
f 64//6 63//6 26//6 25//6
f 63//6 62//6 27//6 26//6
f 62//6 61//6 28//6 27//6
f 17//3 57//3 74//3 86//3
f 72//5 71//5 38//5 37//5
f 71//5 70//5 39//5 38//5
f 70//5 69//5 40//5 39//5
f 8//3 33//3 40//3 7//3
f 33//3 34//3 39//3 40//3
f 34//3 35//3 38//3 39//3
f 35//3 36//3 37//3 38//3
f 2//1 25//1 32//1 1//1
f 25//1 26//1 31//1 32//1
f 26//1 27//1 30//1 31//1
f 27//1 28//1 29//1 30//1
f 69//1 23//1 78//1 73//1
f 3//2 17//2 86//2 85//2
f 40//4 69//4 73//4 84//4
f 22//1 72//1 77//1 82//1
f 37//3 5//3 81//3 75//3
f 29//1 3//1 85//1 76//1
f 5//4 22//4 82//4 81//4
f 60//3 20//3 80//3 79//3
f 82//5 77//5 75//5 81//5
f 87//5 88//5 79//5 80//5
f 76//5 85//5 86//5 74//5
f 73//5 78//5 83//5 84//5
f 50//5 58//5 57//5 49//5
f 54//5 53//5 69//5 70//5
f 52//5 60//5 59//5 51//5
f 56//5 55//5 71//5 72//5
f 99//6 93//6 90//6 89//6
f 100//6 91//6 95//6 97//6
f 97//6 95//6 94//6 98//6
f 98//6 94//6 93//6 99//6
f 96//6 92//6 91//6 100//6
f 137//2 136//2 91//2 92//2
f 141//4 121//4 98//4 99//4
f 128//3 137//3 92//3 96//3
f 108//1 148//1 89//1 90//1
f 148//4 141//4 99//4 89//4
f 116//2 101//2 93//2 94//2
f 136//2 109//2 95//2 91//2
f 21//2 10//2 112//2 133//2
f 134//2 111//2 110//2 135//2
f 9//2 19//2 104//2 113//2
f 114//2 103//2 102//2 115//2
f 28//4 61//4 144//4 145//4
f 145//4 144//4 143//4 146//4
f 146//4 143//4 142//4 147//4
f 147//4 142//4 141//4 148//4
f 4//1 28//1 145//1 105//1
f 105//1 145//1 146//1 106//1
f 106//1 146//1 147//1 107//1
f 107//1 147//1 148//1 108//1
f 33//3 8//3 140//3 125//3
f 125//3 140//3 139//3 126//3
f 126//3 139//3 138//3 127//3
f 127//3 138//3 137//3 128//3
f 61//4 45//4 124//4 144//4
f 143//4 123//4 122//4 142//4
f 8//2 21//2 133//2 140//2
f 140//2 133//2 134//2 139//2
f 139//2 134//2 135//2 138//2
f 138//2 135//2 136//2 137//2
f 10//2 9//2 113//2 112//2
f 111//2 114//2 115//2 110//2
f 19//2 4//2 105//2 104//2
f 104//2 105//2 106//2 103//2
f 103//2 106//2 107//2 102//2
f 102//2 107//2 108//2 101//2
f 45//4 41//4 117//4 124//4
f 123//4 118//4 119//4 122//4
f 65//4 33//4 125//4 132//4
f 132//4 125//4 126//4 131//4
f 131//4 126//4 127//4 130//4
f 130//4 127//4 128//4 129//4
f 41//4 65//4 132//4 117//4
f 118//4 131//4 130//4 119//4
f 110//6 115//6 102//6 142//6 122//6 119//6 130//6 135//6
f 129//1 136//1 135//1 130//1
f 102//3 101//3 141//3 142//3
f 109//5 136//5 129//5 120//5 121//5 141//5 101//5 116//5
f 112//6 113//6 104//6 144//6 124//6 117//6 132//6 133//6
f 104//3 103//3 143//3 144//3
f 131//1 134//1 133//1 132//1
