# Blender v2.76 (sub 0) OBJ File: ''
# www.blender.org
mtllib couch.mtl
o Cube
v 0.713138 -0.551754 -2.722118
v 0.713138 -0.551754 2.722118
v -0.713138 -0.551754 2.722118
v -0.713138 -0.551754 -2.722119
v 0.713138 0.551754 -2.722117
v 0.713138 0.551754 2.722120
v -0.713138 0.551754 2.722117
v -0.713138 0.551754 -2.722118
v -1.713138 -0.551754 2.722118
v -1.713138 -0.551754 -2.722119
v -1.713138 0.551753 2.722117
v -1.713138 0.551753 -2.722118
v -0.713139 1.551754 2.722117
v -0.713138 1.551754 -2.722118
v -1.713138 1.551753 2.722117
v -1.713138 1.551753 -2.722118
v -0.713138 -0.551753 -3.222119
v -0.713138 0.551754 -3.222119
v -1.713138 -0.551753 -3.222119
v -1.713138 0.551754 -3.222119
v -0.713138 -0.551753 3.222118
v -0.713138 0.551754 3.222117
v -1.713138 -0.551753 3.222118
v -1.713138 0.551754 3.222117
v 0.286862 -0.551753 2.722118
v 0.286862 0.551754 2.722117
v 0.286862 -0.551753 -2.722119
v 0.286862 0.551754 -2.722118
v 0.286862 -0.551753 -3.222119
v 0.286862 0.551754 -3.222119
v 0.286862 -0.551753 3.222118
v 0.286862 0.551754 3.222117
v -0.713138 1.051754 -3.222119
v -0.713138 1.051754 -2.722118
v -0.713138 1.051754 2.722118
v -0.713138 1.051754 3.222117
v 0.286862 1.051754 -3.222119
v 0.286862 1.051754 -2.722118
v 0.286862 1.051754 2.722118
v 0.286862 1.051754 3.222117
v -0.713138 1.051754 2.722118
v -1.713138 1.051753 2.722118
v -0.713138 1.051754 -2.722118
v -1.713138 1.051753 -2.722118
v -0.713138 1.051754 -3.222119
v -1.713138 1.051754 -3.222119
v -0.713138 1.051754 3.222117
v -1.713138 1.051754 3.222117
vn 0.000000 -1.000000 0.000000
vn 0.000000 1.000000 -0.000000
vn 1.000000 0.000000 0.000000
vn -0.000000 -0.000000 1.000000
vn 0.000000 -0.000000 -1.000000
vn -1.000000 -0.000000 -0.000000
usemtl Material
s off
f 1//1 2//1 3//1 4//1
f 5//2 8//2 7//2 6//2
f 1//3 5//3 6//3 2//3
f 2//4 6//4 7//4 3//4
f 3//5 7//5 26//5 25//5
f 5//5 1//5 4//5 8//5
f 9//6 11//6 12//6 10//6
f 12//6 11//6 15//6 16//6
f 4//1 10//1 19//1 17//1
f 4//1 3//1 9//1 10//1
f 13//2 14//2 16//2 15//2
f 7//3 8//3 14//3 13//3
f 8//5 12//5 16//5 14//5
f 11//4 7//4 13//4 15//4
f 18//5 17//5 19//5 20//5
f 21//1 3//1 25//1 31//1
f 18//5 20//5 46//5 45//5
f 10//6 12//6 20//6 19//6
f 21//4 22//4 24//4 23//4
f 9//1 3//1 21//1 23//1
f 11//6 9//6 23//6 24//6
f 11//6 24//6 48//6 42//6
f 25//3 26//3 32//3 31//3
f 28//3 27//3 29//3 30//3
f 17//5 18//5 30//5 29//5
f 4//1 17//1 29//1 27//1
f 32//3 26//3 39//3 40//3
f 8//4 4//4 27//4 28//4
f 22//4 21//4 31//4 32//4
f 26//5 7//5 35//5 39//5
f 35//2 36//2 40//2 39//2
f 33//2 34//2 38//2 37//2
f 8//4 28//4 38//4 34//4
f 28//3 30//3 37//3 38//3
f 30//5 18//5 33//5 37//5
f 7//6 22//6 36//6 35//6
f 22//4 32//4 40//4 36//4
f 18//6 8//6 34//6 33//6
f 44//2 43//2 45//2 46//2
f 41//2 42//2 48//2 47//2
f 20//6 12//6 44//6 46//6
f 22//3 7//3 41//3 47//3
f 12//4 8//4 43//4 44//4
f 24//4 22//4 47//4 48//4
f 7//5 11//5 42//5 41//5
f 8//3 18//3 45//3 43//3
