# Blender v2.76 (sub 0) OBJ File: ''
# www.blender.org
mtllib lamp.mtl
o Cube
v 1.000000 -1.000000 -1.000000
v 1.000000 -1.000000 1.000000
v -1.000000 -1.000000 1.000000
v -1.000000 -1.000000 -1.000000
v 1.099934 -0.749176 -1.099933
v 1.099933 -0.749176 1.099935
v -1.099934 -0.749176 1.099934
v -1.099934 -0.749176 -1.099934
v 1.202860 -0.568082 -1.202858
v 1.202858 -0.568082 1.202860
v -1.202859 -0.568082 -1.202859
v -1.202860 -0.568082 1.202859
v 1.358879 -0.333712 -1.358877
v 1.358877 -0.333712 1.358879
v -1.358878 -0.333712 -1.358878
v -1.358878 -0.333712 1.358878
v 1.275828 -0.211643 -1.275827
v 1.275827 -0.211643 1.275828
v -1.275827 -0.211643 -1.275828
v -1.275828 -0.211643 1.275827
v 1.079232 -0.051241 -1.079231
v 1.079230 -0.051241 1.079232
v -1.079231 -0.051241 -1.079231
v -1.079232 -0.051241 1.079231
v 0.720063 0.109536 -0.720062
v 0.720062 0.109536 0.720063
v -0.720062 0.109536 -0.720062
v -0.720063 0.109536 0.720062
v 0.525624 0.257539 -0.525624
v 0.525624 0.257539 0.525624
v -0.525624 0.257539 -0.525624
v -0.525624 0.257539 0.525624
v 0.525624 4.161224 -0.525624
v 0.525624 4.161224 0.525624
v -0.525624 4.161224 -0.525624
v -0.525624 4.161224 0.525624
v 1.713822 2.822166 -1.713821
v 1.713821 2.822166 1.713822
v -1.713821 2.822166 -1.713822
v -1.713822 2.822166 1.713821
v -0.306207 4.141246 -0.306207
v 0.306207 4.141246 -0.306206
v 0.306206 4.141246 0.306207
v -0.306207 4.141246 0.306207
v 1.077545 2.822166 -1.077544
v 1.077544 2.822166 1.077545
v -1.077544 2.822166 -1.077544
v -1.077545 2.822166 1.077544
vn 0.000000 -1.000000 0.000000
vn 0.000000 -0.494100 -0.869400
vn 0.929000 -0.370100 0.000000
vn -0.000000 -0.370100 0.929000
vn -0.929000 -0.370100 -0.000000
vn 0.000000 -0.370100 -0.929000
vn -0.000000 -0.554100 0.832400
vn -0.000000 -0.494100 0.869400
vn 0.869400 -0.494100 0.000000
vn -0.869400 -0.494100 -0.000000
vn 0.826800 0.562500 0.000000
vn 0.832400 -0.554100 0.000000
vn -0.832400 -0.554100 -0.000000
vn 0.000000 -0.554100 -0.832400
vn -0.632200 0.774800 -0.000000
vn -0.826800 0.562500 -0.000000
vn 0.000000 0.562500 -0.826800
vn -0.000000 0.562500 0.826800
vn -0.000000 0.912700 0.408600
vn 0.000000 0.774800 -0.632200
vn -0.000000 0.774800 0.632200
vn 0.632200 0.774800 0.000000
vn -0.605700 0.795700 -0.000000
vn 0.408600 0.912700 0.000000
vn -0.408600 0.912700 -0.000000
vn 0.000000 0.912700 -0.408600
vn 0.000000 0.795700 -0.605700
vn -0.000000 0.795700 0.605700
vn 0.605700 0.795700 0.000000
vn -0.998400 0.056400 -0.000000
vn 0.998400 0.056400 0.000000
vn -0.000000 0.056400 0.998400
vn 0.000000 0.056400 -0.998400
vn 0.000000 -0.663700 -0.748000
vn 0.000000 1.000000 0.000000
vn -0.748000 -0.663700 -0.000000
vn 0.748000 -0.663700 0.000000
vn -0.000000 -0.663700 0.748000
vn 0.000000 0.381100 -0.924500
vn 0.924500 0.381100 0.000000
vn -0.000000 0.381100 0.924500
vn -0.924500 0.381100 -0.000000
usemtl Material
s off
f 1//1 2//1 3//1 4//1
f 5//2 8//2 11//2 9//2
f 1//3 5//3 6//3 2//3
f 2//4 6//4 7//4 3//4
f 3//5 7//5 8//5 4//5
f 5//6 1//6 4//6 8//6
f 12//7 10//7 14//7 16//7
f 7//8 6//8 10//8 12//8
f 6//9 5//9 9//9 10//9
f 8//10 7//10 12//10 11//10
f 14//11 13//11 17//11 18//11
f 10//12 9//12 13//12 14//12
f 11//13 12//13 16//13 15//13
f 9//14 11//14 15//14 13//14
f 19//15 20//15 24//15 23//15
f 15//16 16//16 20//16 19//16
f 13//17 15//17 19//17 17//17
f 16//18 14//18 18//18 20//18
f 24//19 22//19 26//19 28//19
f 17//20 19//20 23//20 21//20
f 20//21 18//21 22//21 24//21
f 18//22 17//22 21//22 22//22
f 27//23 28//23 32//23 31//23
f 22//24 21//24 25//24 26//24
f 23//25 24//25 28//25 27//25
f 21//26 23//26 27//26 25//26
f 25//27 27//27 31//27 29//27
f 28//28 26//28 30//28 32//28
f 26//29 25//29 29//29 30//29
f 31//30 32//30 44//30 41//30
f 30//31 29//31 42//31 43//31
f 32//32 30//32 43//32 44//32
f 29//33 31//33 41//33 42//33
usemtl Material.001
f 36//34 34//34 38//34 40//34
f 40//35 38//35 46//35 48//35
f 34//36 33//36 37//36 38//36
f 35//37 36//37 40//37 39//37
f 33//38 35//38 39//38 37//38
f 35//1 33//1 34//1 36//1
f 38//35 37//35 45//35 46//35
f 39//35 40//35 48//35 47//35
f 37//35 39//35 47//35 45//35
f 47//39 35//39 33//39 45//39
f 45//40 33//40 34//40 46//40
f 46//41 34//41 36//41 48//41
f 48//42 36//42 35//42 47//42
