# Blender v2.76 (sub 0) OBJ File: ''
# www.blender.org
mtllib oven.mtl
o Cube
v 1.000000 -1.000000 -1.000000
v 1.000000 -1.000000 1.000000
v -1.000000 -1.000000 1.000000
v -1.000000 -1.000000 -1.000000
v 1.000000 1.000000 -0.999999
v 0.999999 1.000000 1.000001
v -1.000000 1.000000 1.000000
v -1.000000 1.000000 -1.000000
v -0.732849 -1.000000 -1.000000
v -0.732849 -1.000000 1.000000
v -0.732849 1.000000 -1.000000
v -0.732850 1.000000 1.000000
v -0.829973 1.676900 -1.000000
v -1.000000 1.676900 -1.000000
v -0.829974 1.676900 1.000000
v -1.000000 1.676900 1.000000
v 1.000000 1.000000 0.000001
v 0.133576 1.000000 -1.000000
v 0.133575 1.000000 1.000000
v -0.732849 1.000000 -0.000000
v 0.133575 1.000000 0.000000
v 0.046932 1.044993 0.900000
v -0.646207 1.044993 0.900000
v -0.646207 1.044993 0.100000
v 0.046933 1.044993 0.100000
v 0.913357 1.044993 0.100001
v 0.913357 1.044993 0.900001
v 0.220217 1.044993 0.900000
v 0.220218 1.044993 0.100000
v 0.046933 1.044993 -0.900000
v -0.646207 1.044993 -0.900000
v -0.646207 1.044993 -0.100000
v 0.046933 1.044993 -0.100000
v 0.913358 1.044993 -0.899999
v 0.913357 1.044993 -0.099999
v 0.220218 1.044993 -0.900000
v 0.220218 1.044993 -0.100000
v -0.732850 1.000000 0.500000
v -0.829973 1.676900 -0.000000
v -0.732849 1.338450 -1.000000
v -0.732850 1.338450 1.000000
v -0.732849 1.000000 -0.500000
v 1.000000 -0.760000 -0.800000
v 1.000000 -0.760000 0.800000
v 1.000000 0.840000 -0.800000
v 0.999999 0.840000 0.800001
v 1.000000 0.840000 0.000000
v 0.840366 -0.385882 -0.488235
v 0.840366 -0.385882 0.488235
v 0.840366 0.590588 -0.488234
v 0.840365 0.590588 0.488235
v 0.840366 0.590588 0.000000
v -0.738677 1.054152 0.400000
v -0.738677 1.054152 0.800000
v -0.816376 1.595672 -0.000000
v -0.816376 1.595672 0.800000
v -0.738677 1.324912 -0.800000
v -0.738677 1.054152 -0.800000
v -0.738677 1.324912 0.800000
v -0.738677 1.054152 -0.400000
v -0.738677 1.054152 -0.000000
v -0.816376 1.595672 -0.800000
v -0.743339 1.097474 0.320000
v -0.743339 1.097474 0.640000
v -0.805498 1.530689 -0.000000
v -0.805498 1.530689 0.640000
v -0.743339 1.314081 -0.640000
v -0.743339 1.097474 -0.640000
v -0.743339 1.314081 0.640000
v -0.743339 1.097474 -0.320000
v -0.743339 1.097474 -0.000000
v -0.805498 1.530689 -0.640000
v -0.751544 1.173720 0.179200
v -0.751544 1.173720 0.358400
v -0.786353 1.416320 -0.000000
v -0.786353 1.416320 0.358400
v -0.751544 1.295020 -0.358400
v -0.751544 1.173720 -0.358400
v -0.751544 1.295020 0.358400
v -0.751544 1.173720 -0.179200
v -0.751544 1.173720 -0.000000
v -0.786353 1.416320 -0.358400
vn 1.000000 0.000000 0.000000
vn -0.000000 0.911900 0.410300
vn -0.000000 -0.000000 1.000000
vn 0.000000 0.911900 -0.410300
vn -0.460900 0.887500 -0.000000
vn 0.460900 0.887500 0.000000
vn 0.994300 0.107000 0.000000
vn 0.986300 0.165100 0.000000
vn 0.960200 0.275500 -0.046600
vn 0.999600 0.000000 0.029100
vn 0.999600 0.000000 -0.029100
vn 0.960200 0.275500 0.046600
vn 0.000000 -1.000000 0.000000
vn -1.000000 0.000000 -0.000000
vn 0.000000 0.000000 -1.000000
vn 0.000000 1.000000 0.000000
vn 0.989900 0.142000 0.000000
vn 0.842300 -0.539100 0.000000
vn 0.890100 -0.000000 0.455800
vn 0.890100 0.000000 -0.455800
vn 0.919800 0.392500 0.000000
usemtl Material
s off
f 17//1 6//1 46//1 47//1
f 12//2 19//2 22//2 23//2
f 7//3 12//3 41//3 15//3 16//3
f 17//4 21//4 29//4 26//4
f 21//2 17//2 35//2 37//2
f 20//2 21//2 33//2 32//2
f 21//4 20//4 24//4 25//4
f 20//5 38//5 12//5 23//5 24//5
f 19//6 21//6 25//6 22//6
f 21//5 19//5 28//5 29//5
f 6//6 17//6 26//6 27//6
f 19//2 6//2 27//2 28//2
f 21//6 18//6 30//6 33//6
f 11//5 42//5 20//5 32//5 31//5
f 18//4 11//4 31//4 30//4
f 17//6 5//6 34//6 35//6
f 18//5 21//5 37//5 36//5
f 5//4 18//4 36//4 34//4
f 5//1 17//1 47//1 45//1
f 6//1 2//1 44//1 46//1
f 1//1 5//1 45//1 43//1
f 2//1 1//1 43//1 44//1
f 71//7 70//7 80//7 81//7
f 65//8 66//8 76//8 75//8
f 66//9 69//9 79//9 76//9
f 63//7 71//7 81//7 73//7
f 68//10 67//10 77//10 78//10
f 70//7 68//7 78//7 80//7
f 72//8 65//8 75//8 82//8
f 69//11 64//11 74//11 79//11
f 64//7 63//7 73//7 74//7
f 67//12 72//12 82//12 77//12
usemtl Material.001
f 9//13 10//13 3//13 4//13
f 8//14 7//14 16//14 14//14
f 10//3 12//3 7//3 3//3
f 3//14 7//14 8//14 4//14
f 11//15 9//15 4//15 8//15
f 13//16 14//16 16//16 15//16 39//16
f 11//15 8//15 14//15 13//15 40//15
f 25//16 24//16 23//16 22//16
f 26//16 29//16 28//16 27//16
f 30//16 31//16 32//16 33//16
f 34//16 36//16 37//16 35//16
f 48//1 50//1 52//1 51//1 49//1
f 74//17 73//17 81//17 80//17 78//17 77//17 82//17 75//17 76//17 79//17
usemtl Material.002
f 5//15 1//15 9//15 11//15 18//15
f 2//3 6//3 19//3 12//3 10//3
f 1//13 2//13 10//13 9//13
f 40//12 13//12 62//12 57//12
f 47//18 46//18 51//18 52//18
f 43//19 45//19 50//19 48//19
f 45//18 47//18 52//18 50//18
f 46//20 44//20 49//20 51//20
f 44//21 43//21 48//21 49//21
f 57//12 62//12 72//12 67//12
f 11//10 40//10 57//10 58//10
f 39//8 15//8 56//8 55//8
f 15//9 41//9 59//9 56//9
f 41//11 12//11 54//11 59//11
f 38//7 20//7 61//7 53//7
f 20//7 42//7 60//7 61//7
f 42//7 11//7 58//7 60//7
f 13//8 39//8 55//8 62//8
f 12//7 38//7 53//7 54//7
f 61//7 60//7 70//7 71//7
f 55//8 56//8 66//8 65//8
f 56//9 59//9 69//9 66//9
f 53//7 61//7 71//7 63//7
f 58//10 57//10 67//10 68//10
f 60//7 58//7 68//7 70//7
f 62//8 55//8 65//8 72//8
f 59//11 54//11 64//11 69//11
f 54//7 53//7 63//7 64//7
