# Blender v2.76 (sub 0) OBJ File: ''
# www.blender.org
mtllib Television.mtl
o Cube
v 1.609453 -1.609453 -1.609453
v 1.609453 -1.609453 1.609453
v -1.609454 -1.609453 1.609453
v -1.609453 -1.609453 -1.609454
v 1.609454 1.609453 -1.609453
v 1.609452 1.609453 1.609454
v -1.609454 1.609453 1.609453
v -1.609453 1.609453 -1.609453
v 1.315053 -1.126617 -1.126617
v 1.315053 -1.126617 1.126617
v 1.315053 1.126617 -1.126617
v 1.315052 1.126617 1.126618
v 1.609453 1.609453 0.000001
v 0.000000 1.609453 -1.609453
v -0.000001 1.609453 1.609454
v -1.609454 1.609453 -0.000000
v -0.000000 1.609453 0.000000
v 1.609453 1.609453 0.804728
v -1.609454 1.609453 0.804726
v -0.000000 1.609453 0.804727
v -1.609453 1.609453 -0.804727
v 1.609454 1.609453 -0.804726
v 0.000000 1.609453 -0.804726
v -0.804726 1.609453 -1.609453
v -0.804727 1.609453 1.609453
v -0.804727 1.609453 0.000000
v -0.804727 1.609453 0.804727
v -0.804727 1.609453 -0.804727
v 0.804727 1.609453 -1.609453
v 0.804726 1.609453 1.609454
v 0.804727 1.609453 0.000001
v 0.804726 1.609453 0.804727
v 0.804727 1.609453 -0.804726
v 1.609453 -1.609453 0.000000
v 0.000000 -1.609453 -1.609454
v -0.000000 -1.609453 1.609453
v -1.609453 -1.609453 -0.000000
v 0.000000 -1.609453 -0.000000
v -0.804726 -1.609453 -1.609454
v -0.804727 -1.609453 1.609453
v -0.804727 -1.609453 -0.000000
v 0.804727 -1.609453 -1.609454
v 0.804727 -1.609453 1.609453
v 0.804727 -1.609453 -0.000000
v 1.609453 -1.609453 0.804727
v -1.609453 -1.609453 0.804726
v 0.000000 -1.609453 0.804726
v -0.804727 -1.609453 0.804726
v 0.804727 -1.609453 0.804727
v -1.609453 -1.609453 -0.804727
v 1.609453 -1.609453 -0.804727
v 0.000000 -1.609453 -0.804727
v -0.804726 -1.609453 -0.804727
v 0.804727 -1.609453 -0.804727
v 1.531366 -2.609458 0.885522
v 1.531366 -2.609458 1.529303
v -0.883480 -2.609447 -1.524770
v -1.527261 -2.609447 -1.524770
v -0.876938 -2.609458 1.530025
v -1.520720 -2.609458 1.530024
v -1.527262 -2.609447 -0.880989
v -0.883480 -2.609447 -0.880989
v 1.500963 -2.609454 -1.522340
v 0.857181 -2.609454 -1.522340
v 0.887585 -2.609458 1.529303
v 0.857181 -2.609454 -0.878559
v -1.520720 -2.609458 0.886243
v -0.876938 -2.609458 0.886243
v 0.887585 -2.609458 0.885522
v 1.500963 -2.609454 -0.878559
vn -0.998600 -0.052400 -0.000000
vn 0.000000 1.000000 0.000000
vn 0.853800 -0.520600 0.000000
vn -0.000000 -0.000000 1.000000
vn -1.000000 -0.000000 -0.000000
vn 0.000000 0.000000 -1.000000
vn 0.853800 0.000000 -0.520600
vn 0.853800 -0.000000 0.520600
vn 0.853800 0.520600 0.000000
vn 0.000000 -1.000000 0.000000
vn 0.000000 -0.080500 -0.996800
vn -0.996600 -0.081900 -0.000000
vn -0.996600 -0.082600 -0.000000
vn -0.000000 -0.073600 0.997300
vn 0.997000 -0.077800 0.000000
vn 0.996900 -0.078500 0.000000
vn 0.000000 -0.081200 -0.996700
vn 0.000000 -0.084400 -0.996400
vn -0.996100 -0.088400 -0.000000
vn -0.000000 -0.076000 0.997100
vn 0.000000 -0.086800 -0.996200
vn 0.994200 -0.107900 0.000000
vn -0.000000 -0.079200 0.996900
vn 0.997400 -0.072000 0.000000
vn 0.000000 -0.079900 0.996800
vn 1.000000 0.000000 0.000000
usemtl Material
s off
f 54//1 42//1 64//1 66//1
f 27//2 19//2 7//2 25//2
f 5//3 22//3 13//3 18//3 6//3 12//3 11//3
f 2//4 6//4 30//4 15//4 25//4 7//4 3//4 40//4 36//4 43//4
f 3//5 7//5 19//5 16//5 21//5 8//5 4//5 50//5 37//5 46//5
f 5//6 1//6 42//6 35//6 39//6 4//6 8//6 24//6 14//6 29//6
f 6//7 2//7 10//7 12//7
f 1//8 5//8 11//8 9//8
f 2//9 45//9 34//9 51//9 1//9 9//9 10//9
f 32//2 20//2 15//2 30//2
f 33//2 23//2 17//2 31//2
f 28//2 21//2 16//2 26//2
f 31//2 17//2 20//2 32//2
f 26//2 16//2 19//2 27//2
f 24//2 8//2 21//2 28//2
f 29//2 14//2 23//2 33//2
f 14//2 24//2 28//2 23//2
f 17//2 26//2 27//2 20//2
f 23//2 28//2 26//2 17//2
f 20//2 27//2 25//2 15//2
f 5//2 29//2 33//2 22//2
f 13//2 31//2 32//2 18//2
f 22//2 33//2 31//2 13//2
f 18//2 32//2 30//2 6//2
f 53//10 41//10 37//10 50//10
f 54//10 44//10 38//10 52//10
f 49//10 43//10 36//10 47//10
f 52//10 38//10 41//10 53//10
f 47//10 36//10 40//10 48//10
f 49//11 45//11 55//11 69//11
f 51//10 34//10 44//10 54//10
f 34//10 45//10 49//10 44//10
f 38//10 47//10 48//10 41//10
f 44//10 49//10 47//10 38//10
f 41//10 48//10 46//10 37//10
f 50//12 4//12 58//12 61//12
f 35//10 52//10 53//10 39//10
f 42//10 54//10 52//10 35//10
f 43//13 49//13 69//13 65//13
f 68//10 59//10 60//10 67//10
f 55//10 56//10 65//10 69//10
f 63//10 70//10 66//10 64//10
f 57//10 62//10 61//10 58//10
f 51//14 54//14 66//14 70//14
f 45//15 2//15 56//15 55//15
f 39//16 53//16 62//16 57//16
f 46//17 48//17 68//17 67//17
f 4//18 39//18 57//18 58//18
f 3//19 46//19 67//19 60//19
f 53//20 50//20 61//20 62//20
f 42//21 1//21 63//21 64//21
f 1//22 51//22 70//22 63//22
f 40//23 3//23 60//23 59//23
f 48//24 40//24 59//24 68//24
f 2//25 43//25 65//25 56//25
usemtl Material.001
f 9//26 11//26 12//26 10//26
